<?xml version="1.0" encoding="utf-8"?>
<!-- Generator: Adobe Illustrator 15.0.0, SVG Export Plug-In . SVG Version: 6.00 Build 0)  -->
<!DOCTYPE svg PUBLIC "-//W3C//DTD SVG 1.1//EN" "http://www.w3.org/Graphics/SVG/1.1/DTD/svg11.dtd">
<svg version="1.1" id="Layer_1" xmlns="http://www.w3.org/2000/svg" xmlns:xlink="http://www.w3.org/1999/xlink" x="0px" y="0px"
	 width="18px" height="18px" viewBox="19 19 18 18" enable-background="new 19 19 18 18" xml:space="preserve">
<path fill="#BD522C" d="M28,20.125c2.104,0,4.081,0.819,5.568,2.307s2.307,3.465,2.307,5.568c0,2.104-0.819,4.081-2.307,5.568
	S30.104,35.875,28,35.875s-4.081-0.819-5.568-2.307S20.125,30.104,20.125,28c0-2.104,0.819-4.081,2.307-5.568
	S25.896,20.125,28,20.125 M28,19c-4.971,0-9,4.029-9,9s4.029,9,9,9s9-4.029,9-9S32.971,19,28,19L28,19z M32.5,26.875h-3.375V23.5
	c0-0.621-0.504-1.125-1.125-1.125s-1.125,0.504-1.125,1.125v3.375H23.5c-0.621,0-1.125,0.504-1.125,1.125
	c0,0.622,0.504,1.126,1.125,1.126h3.375V32.5c0,0.621,0.504,1.126,1.125,1.126s1.125-0.505,1.125-1.126v-3.374H32.5
	c0.621,0,1.125-0.504,1.125-1.126C33.625,27.379,33.121,26.875,32.5,26.875z"/>
</svg>
